<svg fill="#1A1A1A" xmlns="http://www.w3.org/2000/svg" xmlns:xlink="http://www.w3.org/1999/xlink" xml:space="preserve" version="1.1" style="shape-rendering:geometricPrecision;text-rendering:geometricPrecision;image-rendering:optimizeQuality;" viewBox="0 0 306 236" x="0px" y="0px" fill-rule="evenodd" clip-rule="evenodd"><defs><style type="text/css">
   
    .fil0 {fill:#1A1A1A}
   
  </style></defs><g><path class="fil0" d="M149 234c-1,-7 4,-27 2,-40l-34 11 -1 -2 -7 4 -1 -1 -11 3c-3,1 -3,0 -4,-2l-30 6 23 -14 0 -2 8 -3 -1 -2 11 -2c0,-1 -1,-2 2,-2 7,-1 25,1 28,0l-49 -11 4 -4 -15 -3 5 -3c-4,0 -11,-2 -14,-3 2,-1 3,-2 4,-3 -5,-1 -10,-2 -14,-4 2,-1 3,-1 3,-3 -5,-2 -9,-3 -13,-5 2,-1 2,-1 3,-2 -8,-7 -11,-6 -18,-11 1,0 2,-1 3,-2 -11,-5 -22,-13 -33,-23 12,2 21,7 31,10 0,-1 0,-1 1,-2 2,2 5,3 8,5 0,-1 0,-1 1,-2 2,2 5,4 7,5 1,0 1,-1 2,-2 3,3 5,5 8,7 1,-1 1,-2 2,-3 4,3 7,6 10,9 1,-1 1,-2 2,-3l8 8c0,0 2,0 3,-3 2,2 5,6 7,8 1,0 1,-1 2,-2 3,3 6,6 9,9 0,-1 1,-1 1,-3 3,4 6,6 8,9 1,0 1,-1 2,-1 3,3 6,6 9,10 0,-1 1,-1 1,-2l17 15c-6,-11 -25,-24 -31,-31 1,0 1,0 2,0l-10 -10c-3,-3 -8,-4 -10,-7 0,-1 1,-1 2,-2 -9,-8 -13,-6 -7,-9 -9,-7 -9,-7 -5,-8 -10,-7 -11,-7 -7,-9 -3,-2 -6,-4 -9,-7 2,0 3,0 4,-1 -10,-9 -12,-9 -6,-10 -8,-8 -9,-8 -4,-9l-6 -7c1,-1 1,-1 2,-1 -16,-19 -21,-33 -24,-42 8,5 20,14 33,29 0,-1 1,-1 1,-2l11 14c4,-3 2,-2 7,9 4,-3 3,-3 6,7 7,-6 0,6 8,4 2,3 3,6 4,10 1,-1 2,-1 3,-2 2,3 2,6 3,10 3,-2 2,-3 5,8 1,-1 2,-1 3,-2 2,5 3,9 4,13 1,0 2,-1 3,-1 2,5 3,9 5,14 1,0 2,-1 3,-2 1,5 2,9 4,14 0,-1 1,-1 1,-1l12 27 -9 -34c1,0 2,0 3,0 -6,-11 -7,-11 -2,-12 -6,-12 -6,-11 -2,-12 -4,-11 -6,-11 -1,-11 -5,-11 -4,-10 0,-10 -2,-3 -3,-7 -4,-10 1,0 3,0 4,0 -1,-4 -3,-7 -3,-12 1,1 2,1 4,1 -4,-7 -5,-8 0,-8 -2,-6 -3,-8 2,-7 -2,-5 -2,-3 -2,-9 1,0 3,0 4,0 -1,-3 -1,-6 -1,-10 1,0 2,0 3,1 3,-21 7,-31 11,-46 4,15 8,25 11,46 1,-1 2,-1 3,-1 0,4 0,7 -1,10 1,0 3,0 4,0 0,6 0,4 -2,9 5,-1 4,1 2,7 5,0 4,1 0,8 2,0 3,0 4,-1 0,5 -2,8 -3,12 1,0 3,0 4,0 -1,3 -2,7 -4,10 4,0 5,-1 0,10 5,0 3,0 -1,11 4,1 4,0 -2,12 5,1 4,1 -2,12 1,0 2,0 3,0l-9 34 12 -27c0,0 1,0 1,1 2,-5 3,-9 4,-14 1,1 2,2 3,2 2,-5 3,-9 5,-14 1,0 2,1 3,1 1,-4 2,-8 4,-13 1,1 2,1 3,2 3,-11 2,-10 5,-8 1,-4 1,-7 3,-10 1,1 2,1 3,2 1,-4 2,-7 4,-10 8,2 1,-10 8,-4 3,-10 2,-10 6,-7 5,-11 3,-12 7,-9l11 -14c0,1 1,1 1,2 13,-15 25,-24 33,-29 -3,9 -8,23 -24,42 1,0 1,0 2,1l-6 7c5,1 4,1 -4,9 6,1 4,1 -6,10 1,1 2,1 4,1 -3,3 -6,5 -9,7 4,2 3,2 -7,9 5,1 4,1 -5,8 6,3 2,1 -7,9 1,1 2,1 2,2 -2,3 -7,4 -10,7l-10 10c1,0 1,0 2,0 -6,7 -25,20 -31,31l17 -15c0,1 1,1 1,2 3,-4 6,-7 9,-10 1,0 1,1 2,1 2,-3 5,-5 8,-9 0,2 1,2 1,3 3,-3 6,-6 9,-9 1,1 1,2 2,2 2,-2 5,-6 7,-8 1,3 3,3 3,3l8 -8c1,1 1,2 2,3 3,-3 6,-6 10,-9 1,1 1,2 2,3 3,-2 5,-4 8,-7 1,1 1,2 2,2 2,-1 5,-3 7,-5 1,1 1,1 1,2 3,-2 6,-3 8,-5 1,1 1,1 1,2 10,-3 19,-8 31,-10 -11,10 -22,18 -33,23 1,1 2,2 3,2 -7,5 -10,4 -18,11 1,1 1,1 3,2 -4,2 -8,3 -13,5 0,2 1,2 3,3 -4,2 -9,3 -14,4 1,1 3,2 4,3 -3,1 -10,3 -14,3l5 3 -15 3 4 4 -49 11c3,1 21,-1 28,0 3,0 2,1 2,2l11 2 -1 2 8 3 0 2 23 14 -30 -6c-1,2 -1,3 -4,2l-11 -3 -1 1 -7 -4 -1 2 -33 -11c-2,13 2,34 1,40 -1,3 -7,3 -8,0zm6 -42l2 -3 51 -24 68 -34 -69 32 -49 25 34 -44 44 -61 -47 59c-10,15 -26,38 -34,50zm-1 -62l-2 -76 -1 76 3 56 0 1 0 -1 0 4c0,-20 0,-40 0,-60zm-57 36l-67 -36 68 34 53 29 -54 -27zm18 -21l-45 -61 84 108 -39 -47z"></path></g></svg>