<svg fill="#1A1A1A" xmlns="http://www.w3.org/2000/svg" xmlns:xlink="http://www.w3.org/1999/xlink" version="1.1" x="0px" y="0px" viewBox="0 0 100 100" enable-background="new 0 0 100 100" xml:space="preserve"><g><circle fill="none" cx="19.942" cy="27.534" r="1.483"></circle><polygon fill="none" points="9.884,49.635 30,49.635 19.942,32.762  "></polygon><polygon fill="none" points="70,49.635 90.116,49.635 80.058,32.762  "></polygon><circle fill="none" cx="80.058" cy="27.534" r="1.483"></circle><path d="M92.757,49.635L81.616,30.944c1.292-0.594,2.194-1.897,2.194-3.409c0-2.069-1.683-3.751-3.752-3.751   c-0.171,0-0.339,0.015-0.504,0.038c-6.187-5.89-13.731-9.542-21.607-10.951c-0.184-3.96-3.444-7.117-7.449-7.117   c-4,0-7.256,3.148-7.449,7.1c-7.986,1.411-15.638,5.124-21.883,11.138c-0.384-0.132-0.795-0.208-1.223-0.208   c-2.069,0-3.752,1.682-3.752,3.751c0,1.512,0.902,2.816,2.194,3.409L7.243,49.635H5c1.118,7.246,7.381,12.794,14.942,12.794   c7.56,0,13.823-5.548,14.942-12.794h-2.243L21.5,30.944c1.292-0.594,2.193-1.897,2.193-3.409c0-0.806-0.257-1.55-0.69-2.161   c5.819-5.501,12.892-8.923,20.278-10.259c0.633,2.418,2.444,4.355,4.787,5.161v57.746c-0.005,0-0.013,0-0.018,0   c-1.346,0-7.145,2.518-12.886,5.596c-5.742,3.077-10.439,6.728-10.439,8.113c0,1.384,5.798,2.517,12.886,2.517   c7.087,0,18.684,0,25.771,0c7.087,0,12.885-1.133,12.885-2.517c0-1.385-4.697-5.036-10.439-8.113   c-5.741-3.077-11.539-5.596-12.886-5.596c-0.006,0-0.013,0-0.018,0V20.275c2.338-0.805,4.146-2.734,4.783-5.146   c7.14,1.309,13.989,4.562,19.685,9.767c-0.672,0.679-1.087,1.61-1.087,2.638c0,1.512,0.902,2.815,2.194,3.409L67.358,49.635h-2.243   c1.119,7.246,7.383,12.794,14.943,12.794c7.56,0,13.824-5.548,14.942-12.794H92.757z M19.942,26.051   c0.817,0,1.483,0.665,1.483,1.483c0,0.817-0.665,1.483-1.483,1.483c-0.818,0-1.483-0.665-1.483-1.483   C18.459,26.717,19.124,26.051,19.942,26.051z M30,49.635H9.884l10.058-16.874L30,49.635z M80.058,26.051   c0.818,0,1.483,0.665,1.483,1.483c0,0.817-0.665,1.483-1.483,1.483c-0.817,0-1.482-0.665-1.482-1.483   C78.575,26.717,79.24,26.051,80.058,26.051z M70,49.635l10.058-16.874l10.058,16.874H70z"></path></g></svg>