<svg fill="#1A1A1A" xmlns="http://www.w3.org/2000/svg" viewBox="0 0 207.97 121.29" x="0px" y="0px"><title>Asset 6</title><g data-name="Layer 2"><g data-name="Layer 1"><path d="M68.37,6.08a.84.84,0,0,1,.26,0h0A.84.84,0,0,0,68.37,6.08Z"></path><path d="M207.78.18a117.41,117.41,0,0,0-81.91,33.27q-4,3.89-7.63,8.16a117.36,117.36,0,0,0-20,33.61A40.36,40.36,0,0,1,61.53,101H60.31q-1.17,0-2.34-.1a35.32,35.32,0,0,1,0-70.44q1.34-.1,2.69-.1a15.15,15.15,0,0,0,13.18-7.68l-5.93.55h-.25a2.63,2.63,0,0,1-2.4-1.56,2.6,2.6,0,0,1,.43-2.83l1.87-2.11L65,15.57a2.63,2.63,0,0,1,.37-4.94l2.2-.62L66.48,8.45A2.64,2.64,0,0,1,68.62,4.3a2.65,2.65,0,0,1,.93.17l2.76,1A15.1,15.1,0,0,0,60.65,0Q58.34,0,56,.18A60.64,60.64,0,1,0,119.32,76,101.44,101.44,0,0,1,207.85.64C208.14.61,207.78.18,207.78.18Z"></path><path d="M78,17.56l-.56-.19h0Z"></path><path d="M67.9,7.44l1.87,2.65a.81.81,0,0,1-.45,1.26l-1.61.45-1.86.52A.89.89,0,0,0,65.73,14l3.6,1.62.09,0a.82.82,0,0,1,.28,1.3L67,20a.88.88,0,0,0,.57,1.46h.17l7-.65a15.39,15.39,0,0,0,1-3.95h0c.59.16,1.18.33,1.76.52a46.79,46.79,0,0,1,7.06,2.89q1.73.87,3.37,1.89c.87.54,2,1.66,3.05,1.66a1.82,1.82,0,0,0,1.5-.78,1.8,1.8,0,0,0,.31-1.2,1.86,1.86,0,0,0-.64-1.21l-.9-.63a47.47,47.47,0,0,0-13.68-6.38c-.62-.19-1.25-.36-1.88-.51h0c0-.17-.05-.35-.08-.53A14.89,14.89,0,0,0,74,8L68.93,6.11A.88.88,0,0,0,67.9,7.44Z"></path></g></g></svg>