<svg fill="#1A1A1A" xmlns="http://www.w3.org/2000/svg" xmlns:xlink="http://www.w3.org/1999/xlink" viewBox="0 0 80.4 80.4" version="1.1" x="0px" y="0px"><g><path style="" d="M 11.542969 57.777344 C 21.960938 43.730469 30.648438 28.6875 40.199219 8.140625 C 49.753906 28.6875 58.4375 43.730469 68.855469 57.777344 L 63.660156 60.777344 C 56.707031 44.730469 48.019531 29.6875 40.199219 20.140625 C 32.378906 29.6875 23.695312 44.730469 16.738281 60.777344 " stroke="none" fill-rule="nonzero" fill="#1A1A1A" fill-opacity="1"></path><path style="" d="M 14.140625 56.277344 C 31.515625 58.277344 48.886719 58.277344 66.257812 56.277344 L 66.257812 62.277344 C 48.886719 60.277344 31.515625 60.277344 14.140625 62.277344 " stroke="none" fill-rule="nonzero" fill="#1A1A1A" fill-opacity="1"></path><path style="" d="M 43.199219 14.140625 C 41.199219 31.515625 41.199219 48.886719 43.199219 66.257812 L 37.199219 66.257812 C 39.199219 48.886719 39.199219 31.515625 37.199219 14.140625 " stroke="none" fill-rule="nonzero" fill="#1A1A1A" fill-opacity="1"></path><path style="" d="M 8.628906 51.765625 C 26.4375 69.324219 53.960938 69.324219 71.773438 51.765625 L 75.628906 56.363281 C 54.691406 71.324219 25.710938 71.324219 4.769531 56.363281 " stroke="none" fill-rule="nonzero" fill="#1A1A1A" fill-opacity="1"></path></g></svg>