<svg fill="#1A1A1A" xmlns="http://www.w3.org/2000/svg" data-name="Layer 1" viewBox="0 0 512 512" x="0px" y="0px"><title>Planet BW</title><g><path d="M133.5,234.6h0Z"></path><path d="M485.32,366.74a4.26,4.26,0,0,0-1.92-2.5,4.2,4.2,0,0,0-3.23-.42l-1,.42a4.15,4.15,0,0,0-1.5,1.5l-.56.75a65.9,65.9,0,0,1-4.38,5.06,46.08,46.08,0,0,1-4.75,4.3,40.61,40.61,0,0,1-7.79,4.58,39.5,39.5,0,0,1-8.46,2.28,50.23,50.23,0,0,1-11.69-.15c-8.72-1.3-17.09-4.23-25.31-7.35-4.39-1.67-8.76-3.42-13.14-5.11-2.11-.81-4.21-1.6-6.33-2.37a72.12,72.12,0,0,0-7.85-2.34L385.7,365a140,140,0,0,0,11.58-15q1.53-2.29,3-4.65a127.78,127.78,0,0,0,13.94,4.21,116.41,116.41,0,0,0,19.57,2.91,1.32,1.32,0,0,0,1.32-1.31,1.34,1.34,0,0,0-1.32-1.32c-2.27-.15-4.53-.38-6.79-.67a120.56,120.56,0,0,1-25.16-6.43q1.83-3.15,3.49-6.38c1.3-.48,2.6-1,3.88-1.51q3.65-1.5,7.17-3.27c2.36-1.19,4.65-2.49,6.9-3.86A111.07,111.07,0,0,0,436,318.56c1.12-.92,2.22-1.88,3.3-2.86a75.38,75.38,0,0,0,8.47-1.2c1.65-.34,3.29-.76,4.9-1.24a54.1,54.1,0,0,0,5.77-2.16,43.29,43.29,0,0,0,4.42-2.2,40.48,40.48,0,0,0,4.92-3.43,26.53,26.53,0,0,0,3.51-3.36,28.7,28.7,0,0,0,3.48-4.84,3.88,3.88,0,0,0-3.36-5.84l-1,.13a4,4,0,0,0-1.72,1,41.46,41.46,0,0,1-3,3.36,35.36,35.36,0,0,1-2.9,2.56,41.3,41.3,0,0,1-7.89,4.56,50.76,50.76,0,0,1-5.46,1.84c.5-.64,1-1.27,1.5-1.92q1.69-2.25,3.16-4.65c.92-1.49,1.74-3,2.51-4.59a1.77,1.77,0,0,0,.46.07,1.8,1.8,0,0,0,1.78-1.78,1.77,1.77,0,0,0-.78-1.46c.31-.69.6-1.38.89-2.08a63.53,63.53,0,0,0,3.12-9.87,3.27,3.27,0,0,0,1.29.26,3.35,3.35,0,0,0,0-6.69h-.08c.21-1.44.39-2.87.54-4.31a77.31,77.31,0,0,0-.54-18.8c.55-.46,1.1-.92,1.62-1.42a30.34,30.34,0,0,0,3.28-3.7,17.55,17.55,0,0,0,1.89-3,16,16,0,0,0,1.47-4.36,17.69,17.69,0,0,0,.29-3.16,11.49,11.49,0,0,0-.09-1.18c-.09-.68-.18-1.34-.32-2a4.19,4.19,0,0,0-1.06-1.82,4.14,4.14,0,0,0-5.83,0,4.06,4.06,0,0,0-1.2,2.92,14.74,14.74,0,0,1,0,1.88,12.78,12.78,0,0,1-.57,2,18.52,18.52,0,0,1-1.67,2.77,2.09,2.09,0,0,1-.2.22,72.26,72.26,0,0,0-4.22-10.66,53.7,53.7,0,0,0-4.82-8,52.22,52.22,0,0,0-6.48-7.45,47.32,47.32,0,0,0-3.94-3.26,41.16,41.16,0,0,0-3.81-2.59,36.87,36.87,0,0,0-3.8-2,47.12,47.12,0,0,0-5.14-2,43.76,43.76,0,0,0-10-1.81,50.19,50.19,0,0,0-11,.59l-.08,0q-2.91-5.74-6.37-11.17l1.25-.56A76.74,76.74,0,0,1,421.28,184a42.48,42.48,0,0,1,10.57-.14,28.26,28.26,0,0,1,6.83,1.83,23.85,23.85,0,0,1,5,3,1,1,0,0,0,1.43-.38,1,1,0,0,0,.1-.8,1.13,1.13,0,0,0-.47-.62,27.09,27.09,0,0,0-13.14-5.22,37.48,37.48,0,0,0-4.85-.3A53,53,0,0,0,416,182.52a87.52,87.52,0,0,0-16.15,5.24c-1-1.54-2.07-3.07-3.15-4.57A135.18,135.18,0,0,0,376.75,161c.95-.5,1.9-1,2.85-1.52a78.45,78.45,0,0,1,7.57,2.72l-1.07-.45c3.67,1.55,7.34,3.09,11.09,4.44,4.06,1.47,8.18,2.75,12.36,3.81a90.69,90.69,0,0,0,14.36,2.43,46,46,0,0,0,13.6-.74,29.92,29.92,0,0,0,5.58-1.92,19.26,19.26,0,0,0,2.16-1.13,27.92,27.92,0,0,0,2.81-2,19.83,19.83,0,0,0,3.87-4.4,23,23,0,0,0,2.73-5.54A4.64,4.64,0,0,0,449,151l-1.11.47a4.63,4.63,0,0,0-1.66,1.66,21.64,21.64,0,0,1-1.93,3.42,17.28,17.28,0,0,1-2.12,2.07,21.4,21.4,0,0,1-3.5,2,30.19,30.19,0,0,1-6.21,1.62,55,55,0,0,1-13-.25,127.91,127.91,0,0,1-24.1-6.2c-1.54-.55-3.09-1.12-4.62-1.71l-1.53-.58.71-.5c2-1.47,3.92-3,5.77-4.67a54.06,54.06,0,0,0,8.24-9.37,47.37,47.37,0,0,0,5.31-10.39A56.49,56.49,0,0,0,412,117.28a110.6,110.6,0,0,0,1.17-13.49c0-1,0-1.91.05-2.86a3.49,3.49,0,0,0-3.46-3.46,3.44,3.44,0,0,0-2.45,1,3.55,3.55,0,0,0-1,2.45c-.06,2.41-.16,4.82-.32,7.23a5.43,5.43,0,0,0-3.3-1.14,5.49,5.49,0,0,0,0,11,5.35,5.35,0,0,0,2.15-.46,54.74,54.74,0,0,1-3,10.26,44.78,44.78,0,0,1-4.47,7.85,3.29,3.29,0,0,0,.13-.88,3.48,3.48,0,1,0-3.48,3.48,3.44,3.44,0,0,0,1.65-.44,58.14,58.14,0,0,1-8.21,7.86c-2.13,1.62-4.34,3.1-6.61,4.5-.89-.82-1.75-1.68-2.57-2.58-1.59-1.73-3-3.58-4.49-5.41s-2.77-3.39-4.25-5-3.14-3.24-4.8-4.75a84.52,84.52,0,0,0-21.16-13.61c-2-.93-4-1.8-6.05-2.63a76.87,76.87,0,0,0-2.34-16.46,63,63,0,0,0-3.16-9.25,34.62,34.62,0,0,0-4.82-8.11c-.4-.5-.84-1-1.29-1.42,0-.09,0-.17,0-.26a15.28,15.28,0,0,0-.14-2.14,23.78,23.78,0,0,0-.44-2.5,16,16,0,0,0-.66-2c.49-.1,1-.18,1.48-.25s.7-.08,1.05-.1a18.12,18.12,0,0,1,1.95,0,66.37,66.37,0,0,1,6.91.58c2.7.38,5.38.85,8.08,1.26a50.28,50.28,0,0,0,8.48.7,28.25,28.25,0,0,0,8.64-1.58,35.31,35.31,0,0,0,4.5-2,43.09,43.09,0,0,0,5.09-3.26l.48-.38a2.39,2.39,0,0,0,.38-2.9A2.46,2.46,0,0,0,370.32,65a2.33,2.33,0,0,0-1.84.25,40.71,40.71,0,0,1-7.19,4.13A26.38,26.38,0,0,1,355.45,71a33.42,33.42,0,0,1-8.18-.16c-3-.42-6-1-9-1.47q-2.67-.42-5.37-.69a46.47,46.47,0,0,0-5.14-.29,23,23,0,0,0-2.75.26c-.94.13-1.87.3-2.8.5a30.6,30.6,0,0,0-3-3.71,31.09,31.09,0,0,0-3.41-3.08,39.63,39.63,0,0,0-4.43-3.06,36.88,36.88,0,0,0-4.11-2.09,40.07,40.07,0,0,0-4.88-1.78,27.89,27.89,0,0,0-7.76-1.11c-.37,0-.74,0-1.11,0a34.34,34.34,0,0,0-4.53.53,29.46,29.46,0,0,0-4.25,1.1,35,35,0,0,0-7.85,3.82,44.62,44.62,0,0,0-6.89,5.6,57.3,57.3,0,0,0-5.9,7c-.43.6-.85,1.2-1.27,1.81A37.07,37.07,0,0,0,258,72.93a26.43,26.43,0,0,0-4.86-.48c-.57,0-1.14,0-1.71.07a1,1,0,0,0-.94.93.94.94,0,0,0,.94.94,23.64,23.64,0,0,1,4.45.14A34.53,34.53,0,0,1,261.69,76a85.43,85.43,0,0,0-6.43,12.74,92.33,92.33,0,0,0-4.47,14q-7.77.65-15.46,2c0-.18,0-.35-.06-.52a19.82,19.82,0,0,0-6.21-11.91,21.06,21.06,0,0,0-10.57-4.63,1.3,1.3,0,0,0-1-.53,1.25,1.25,0,0,0-.77.28c-.95-.11-1.91-.19-2.86-.23h0a1,1,0,0,0-1,1,1.06,1.06,0,0,0,1,1c1,0,1.93.13,2.89.25a1.28,1.28,0,0,0,.74.26,1.05,1.05,0,0,0,.36-.08A25.52,25.52,0,0,1,223,91.06a19.31,19.31,0,0,1,3.73,2.17,16.84,16.84,0,0,1,2.63,2.64,18,18,0,0,1,2.08,3.61,23.5,23.5,0,0,1,1.43,5.46s0,.1,0,.15l-.55.1a150.66,150.66,0,0,0-25.26,7.27q-2.64,1-5.25,2.14c-1.39-1.26-2.82-2.46-4.31-3.59a31.79,31.79,0,0,0-8.45-4.59,19.93,19.93,0,0,0-4.32-.93,11.37,11.37,0,0,0-1.42-.08,19.61,19.61,0,0,0-3,.26,16.36,16.36,0,0,0-6.81,3l-.09-.11a3.52,3.52,0,0,0-2.47-1,3.33,3.33,0,0,0-2.43,1,46.49,46.49,0,0,1-4.31,4,37.1,37.1,0,0,1-7.14,4.14,99.19,99.19,0,0,1-13.86,4c-2.47.61-4.92,1.27-7.33,2.09a52.14,52.14,0,0,0-8,3.48,45.15,45.15,0,0,0-6.82,4.66,41.6,41.6,0,0,0-5.11,4.91c-.93,1.05-1.78,2.16-2.63,3.27s-1.45,2-2.11,3a45.26,45.26,0,0,0-3.56,7,38,38,0,0,0-2.09,6.62c-.3,1.37-.48,2.76-.66,4.15a31.63,31.63,0,0,0-.07,6.81,38.36,38.36,0,0,0,.7,4.42,32.25,32.25,0,0,0,2.7,7.37,33.6,33.6,0,0,0,4.66,6.8,35.75,35.75,0,0,0,3.95,3.93,36.85,36.85,0,0,0,4.78,3.47,29.23,29.23,0,0,0,4.05,2,150,150,0,0,0-7.33,27.68c-.49,3-.88,6-1.21,9a75.07,75.07,0,0,1-7.68-2.68,51.26,51.26,0,0,1-10.84-6.19,35.23,35.23,0,0,1-6.07-6,29.33,29.33,0,0,1-3.51-6,30,30,0,0,1-2-7.25,36.26,36.26,0,0,1,.07-9.31c0-.21,0-.41.09-.62a.57.57,0,0,0-.39-.68.55.55,0,0,0-.68.39,36.51,36.51,0,0,0,.27,13.86,29.52,29.52,0,0,0,5.18,11.05c5.15,6.87,12.85,11.3,20.74,14.33,1.49.57,3,1.08,4.53,1.55v0c-.31.24-.63.47-.94.72a102.87,102.87,0,0,0-10.17,9.29c-1.47,1.55-2.86,3.18-4.17,4.86a51.94,51.94,0,0,0-3.87,5.7A37.48,37.48,0,0,0,95.16,260a27,27,0,0,0-1.4,6.23,21.83,21.83,0,0,0,.56,8,17.92,17.92,0,0,0,.86,2.46c-2.07,1.26-4.15,2.52-6.24,3.76a151.83,151.83,0,0,1-16.87,8.81,63.84,63.84,0,0,1-14.47,4.29,23.13,23.13,0,0,1-4.85-.1,45.87,45.87,0,0,1-10.21-2.87A34,34,0,0,1,36.15,287,16.11,16.11,0,0,1,34,284.92a9.83,9.83,0,0,1-.68-1.12c-.07-.23-.14-.46-.19-.7a4,4,0,0,1,0-.49,4.24,4.24,0,0,1,.17-.61,7.69,7.69,0,0,1,.52-.87,11.81,11.81,0,0,1,1.52-1.48,27.92,27.92,0,0,1,3.87-2.29,2.9,2.9,0,0,0,1.36-1.76A2.95,2.95,0,0,0,38.52,272l-.78-.11a3,3,0,0,0-1.49.4A24.75,24.75,0,0,0,32,274.59a14.64,14.64,0,0,0-3.25,2.88,12.69,12.69,0,0,0-1.15,1.67,9.46,9.46,0,0,0-.74,1.8,8.66,8.66,0,0,0-.13,4,6.52,6.52,0,0,0,.35,1.24,13.18,13.18,0,0,0,.84,1.83,9,9,0,0,0,.81,1.2,20.27,20.27,0,0,0,1.58,1.87,24.82,24.82,0,0,0,3.1,2.6,29.75,29.75,0,0,0,3.48,2.17,42,42,0,0,0,4.19,1.95c1.36.57,2.74,1.07,4.15,1.51A41.27,41.27,0,0,0,53.74,301a21.52,21.52,0,0,0,3.31,0,37.06,37.06,0,0,0,5.82-1,75.42,75.42,0,0,0,13.05-4.51c8.14-3.51,15.73-8.17,23.27-12.8.23.25.46.51.71.76a29.47,29.47,0,0,0,3.24,2.65,36.87,36.87,0,0,0,6.6,3.71,76.52,76.52,0,0,0,8.44,3.18c1.47.46,2.95.89,4.44,1.3,1.19,4.23,2.53,8.43,4,12.57l-1.15,0c-1.1,0-2.18,0-3.27.06a84,84,0,0,0-17.85,2.55,75.94,75.94,0,0,0-17.48,6.93A1.07,1.07,0,1,0,88,318.26q3.1-1.68,6.36-3.07a77.63,77.63,0,0,1,8.93-3.05,76.83,76.83,0,0,1,9.72-2,88.4,88.4,0,0,1,14.63-.66,158.12,158.12,0,0,0,8.44,18.56,138.27,138.27,0,0,0,11.5,17.74c.32.42.66.83,1,1.26l-1-.37c-4.32-1.93-8.36-4.42-12.5-6.69a46.74,46.74,0,0,0-13.88-5.35,32.51,32.51,0,0,0-7-.51c-1,0-1.89.13-2.82.25-1.32.17-2.61.38-3.9.67a34.83,34.83,0,0,0-6,2,24.23,24.23,0,0,0-5.18,3,28.63,28.63,0,0,0-2.54,2.13,15.94,15.94,0,0,0-1.76,2,23.5,23.5,0,0,0-1.87,2.69,23,23,0,0,0-1.52,3.45,15.4,15.4,0,0,0-.65,2.68,23.31,23.31,0,0,0-.34,3.53,22,22,0,0,0,.34,3.71,18.88,18.88,0,0,0,.78,3.24,23.46,23.46,0,0,0,7.12,10.19,37.44,37.44,0,0,0,5.15,3.69,46.16,46.16,0,0,0,6.29,3.05,57.45,57.45,0,0,0,11.35,3.31,51.46,51.46,0,0,0,10.94.86,50.48,50.48,0,0,0,5.07-.43c2.14-.28,4.27-.62,6.38-1.08a71.2,71.2,0,0,0,11-3.38,85.64,85.64,0,0,0,11.29-5.35,73.24,73.24,0,0,0,7.07-4.61q4,3.33,8.11,6.44c3.25,2.44,6.62,4.73,10,6.9a22.71,22.71,0,0,0-1.44,3.72,27.68,27.68,0,0,0-.82,4.7,27.29,27.29,0,0,0,.53,9.23,23.28,23.28,0,0,0,1.51,4.11,18.74,18.74,0,0,0,2.43,3.74c.14.19.3.35.45.53l-1.12.17a49.3,49.3,0,0,1-12.55.3,21.82,21.82,0,0,1-5.21-1.34,14,14,0,0,1-2.71-1.55,11.48,11.48,0,0,1-1.81-1.81,10.64,10.64,0,0,1-1.24-2.14,13.27,13.27,0,0,1-.82-3c-.05-.44-.09-.88-.11-1.32a.69.69,0,0,0-.68-.68.68.68,0,0,0-.68.68,14.54,14.54,0,0,0,1,5.18,11.22,11.22,0,0,0,2.69,3.84c2.54,2.37,6,3.44,9.41,4a50.31,50.31,0,0,0,13.26-.07c.78-.09,1.55-.21,2.33-.32l0,0a26.52,26.52,0,0,0,3.59,2.64,25.22,25.22,0,0,0,3.07,1.55,38.83,38.83,0,0,0,4.41,1.62,46.86,46.86,0,0,0,8.4,1.53,58.77,58.77,0,0,0,7.62.28,72.79,72.79,0,0,0,7.8-.64,85.68,85.68,0,0,0,9.79-1.84l1.19-.3c.8,1.74,1.66,3.47,2.59,5.15a46.75,46.75,0,0,0,6.39,8.91,36.81,36.81,0,0,0,4.85,4.31,22.5,22.5,0,0,0,5.25,2.92,19.31,19.31,0,0,0,2.1.73,19.82,19.82,0,0,0,2.77.49,17.26,17.26,0,0,0,2,.13,21.9,21.9,0,0,0,3-.3,17.63,17.63,0,0,0,4.44-1.39,21.61,21.61,0,0,0,3.93-2.2,39.65,39.65,0,0,0,7.42-6.87,71,71,0,0,0,5-6.7,75.55,75.55,0,0,0,4.11-6.87,3.63,3.63,0,0,0,.35-2.68,3.54,3.54,0,0,0-1.6-2.09,5.11,5.11,0,0,0-.48-.22c3-.21,6-.5,9-.88q4.79-.63,9.51-1.53c.56,3.92,1.2,7.82,2,11.69A103.66,103.66,0,0,0,316.24,435a54.81,54.81,0,0,0,5.58,11.18,35.72,35.72,0,0,0,3.82,4.76,20.81,20.81,0,0,0,1.69,1.56,30,30,0,0,0,2.78,2.08,17.59,17.59,0,0,0,1.9,1.05,24.35,24.35,0,0,0,3.19,1.27,15.39,15.39,0,0,0,2.14.47,23.57,23.57,0,0,0,3.55.34,15.78,15.78,0,0,0,2.38-.17,30.73,30.73,0,0,0,3.81-.69,23.72,23.72,0,0,0,2.94-1,39.82,39.82,0,0,0,3.92-1.82,4.79,4.79,0,0,0-1.14-8.75l-1.27-.17a4.8,4.8,0,0,0-2.42.65c-.52.26-1,.5-1.57.74a25.09,25.09,0,0,1-4.87,1.4,17.22,17.22,0,0,1-3.13,0,15.74,15.74,0,0,1-2.61-.71,17.86,17.86,0,0,1-2.67-1.58,25.33,25.33,0,0,1-3.36-3.43,45.41,45.41,0,0,1-4.9-8.77,101.71,101.71,0,0,1-4.8-15.74c-1-4.26-1.75-8.57-2.41-12.89,1-.24,1.92-.47,2.87-.73a150.7,150.7,0,0,0,20.82-7.51,128,128,0,0,0,13.19-6.76c1,.06,1.93.13,2.89.24a20.67,20.67,0,0,1,4.1,1,12.06,12.06,0,0,1,1.48.85,8.41,8.41,0,0,1,.79.79,9.61,9.61,0,0,1,.57,1,11.17,11.17,0,0,1,.5,2,6.62,6.62,0,0,1,.06.88c0,.1-.06.2-.1.3a25,25,0,0,1-2.8,4.28c-2.53,3.24-5.23,6.33-7.82,9.51-1.39,1.72-2.76,3.46-4,5.26a23.07,23.07,0,0,0-2.34,4,11.23,11.23,0,0,0-.81,2.3,9.69,9.69,0,0,0-.19,1.61,6.62,6.62,0,0,0,.2,1.53,6.31,6.31,0,0,0,.52,1.26,1.25,1.25,0,0,0,.16.24,9.15,9.15,0,0,0,.72.9,5.93,5.93,0,0,0,2.65,1.46,11.61,11.61,0,0,0,1.55.24,9.21,9.21,0,0,0,1.05,0c.43,0,.87-.06,1.3-.11.75-.09,1.5-.2,2.24-.33a57.39,57.39,0,0,0,8.42-2.42l.84-.36a3.49,3.49,0,0,0,1.27-1.26,3.53,3.53,0,0,0-1.27-4.84,3.46,3.46,0,0,0-2.72-.36,55.67,55.67,0,0,1-8.4,2.25,32.14,32.14,0,0,1,2-2.8c2.73-3.49,5.69-6.78,8.53-10.18,1.47-1.77,2.91-3.57,4.23-5.45a18.06,18.06,0,0,0,2.46-4.68,3.59,3.59,0,0,0,.17-.72,8.62,8.62,0,0,0,.15-1.88,22.86,22.86,0,0,0-.35-2.85,11.39,11.39,0,0,0-.62-2.14A15.12,15.12,0,0,0,372,389a14.72,14.72,0,0,0-1.44-1.89,9.35,9.35,0,0,0-1.17-1.1,16,16,0,0,0-2.17-1.48,18.3,18.3,0,0,0-2.13-.93,128,128,0,0,0,13.15-10.9l1.59.17q3.26.48,6.45,1.28a74,74,0,0,1,7.7,2.43c4.42,1.61,8.79,3.35,13.18,5.06,8.47,3.3,17,6.57,26,8.47,2.22.48,4.47.81,6.72,1.1a54,54,0,0,0,6.48.44,42.89,42.89,0,0,0,5.88-.37,44,44,0,0,0,6.91-1.38,42.4,42.4,0,0,0,6.19-2.41,38.72,38.72,0,0,0,6-3.51,54.46,54.46,0,0,0,11.34-10.94c.8-1,1.58-2.05,2.33-3.1l.42-1A4.22,4.22,0,0,0,485.32,366.74ZM363.11,374a121.19,121.19,0,0,1-12,8h-1a68.68,68.68,0,0,1-7.17-.33,18.66,18.66,0,0,1-3.59-.89c-.36-.17-.71-.36-1.07-.56,8.27-3.17,16.66-5.94,25.47-7.22l.64-.07C364,373.26,363.55,373.62,363.11,374Zm9.13-10.31a76.51,76.51,0,0,0-14.47,1.52c-9.16,1.76-17.93,5.13-26.54,8.64l-.62.26-.59-.59c-1.47-1.59-2.83-3.28-4.17-5a123.16,123.16,0,0,0-8.28-10.22,39.5,39.5,0,0,0-5.41-4.68c-.6-.44-1.23-.84-1.86-1.23q2.73-5,5.17-10.21c4.12-3.45,8.28-6.85,12.53-10.15s8.57-6.4,13-9.38c2.42-1.61,4.87-3.18,7.38-4.66.17-.11.35-.2.52-.3.81,1.68,1.62,3.35,2.49,5a41.94,41.94,0,0,0,6,8.74,28.75,28.75,0,0,0,4.13,3.58,25.55,25.55,0,0,0,5.5,2.95,30.66,30.66,0,0,0,5.62,1.72c1.3.28,2.62.46,3.94.61s2.66.28,4,.34a52,52,0,0,0,6.6-.17l1-.11c1.19.56,2.38,1.11,3.58,1.64q-3.33,5.35-7.17,10.39a128.4,128.4,0,0,1-10,11.35ZM241.77,396.06l1.14-.49c2.67-1.22,5.29-2.57,7.88-4,.7-.37,1.38-.75,2.07-1.14,1.61.77,3.24,1.49,4.9,2.14a53.43,53.43,0,0,0,5.42,1.74q-3.54,2.4-7.28,4.52C251.15,398.12,246.44,397.2,241.77,396.06ZM130.3,289a172.59,172.59,0,0,1-4.08-20.16c0-.22,0-.45-.07-.67a133.84,133.84,0,0,1,17.09-5.48A185.62,185.62,0,0,1,163,259.07c4.61-.61,9.24-1.11,13.87-1.56q6.28-.61,12.53-1.46,8.9-1.2,17.68-3c0,.13,0,.25-.05.37a92.2,92.2,0,0,0-.66,10.63,65.17,65.17,0,0,0,.85,10.34,42.9,42.9,0,0,0,7.36,18.25,41.61,41.61,0,0,0,7.34,7.83,54,54,0,0,0,10.23,6.6c1.77.88,3.59,1.68,5.39,2.51l1.05.48.3.13,4.43,2,5.92,2.69q-4.23,3.45-8.51,6.85a18.51,18.51,0,0,0-2.95.48,18.72,18.72,0,0,0-2.82,1.05,12.26,12.26,0,0,0-2.13,1.25,17.8,17.8,0,0,0-2.25,1.9,11.86,11.86,0,0,0-.8.93,21.36,21.36,0,0,0-1.26,1.74,14.36,14.36,0,0,0-1.12,2.34c-1,.68-2.06,1.35-3.11,2a117.53,117.53,0,0,1-15.72,8.24q-5.06-4.71-10.54-8.9c-1.67-1.28-3.38-2.5-5.12-3.69l-.06-.64a38.25,38.25,0,0,0-1.14-5.81,41,41,0,0,0-2.41-6.18,31.8,31.8,0,0,0-5.52-8.27,27.24,27.24,0,0,0-2.69-2.47,40.92,40.92,0,0,0-3.87-2.8,52.83,52.83,0,0,0-8.07-4,109.32,109.32,0,0,0-17.89-5.38c-6.78-1.55-13.63-2.82-20.42-4.33Zm-5-53.05.22,0A175.53,175.53,0,0,0,143,238.71a162.24,162.24,0,0,0,35.52-.12,143.62,143.62,0,0,0,32.78-7.66,1.94,1.94,0,0,1-.05.2c-1.25,5.06-2.37,10.15-3.25,15.29-5.52,1.13-11.09,2.07-16.67,2.83q-5.75.76-11.51,1.3c-4.61.43-9.21.81-13.81,1.32a197.2,197.2,0,0,0-27.29,4.76,125.51,125.51,0,0,0-13.35,4.26A164.26,164.26,0,0,1,125.29,236Zm79.1-115.51c1.43,1.56,2.83,3.17,4.14,4.84a69.09,69.09,0,0,1,4.54,6.74c.56.95,1.08,1.91,1.59,2.89-1.79,1.34-3.53,2.76-5.24,4.2-2.53,2.15-5,4.37-7.46,6.61-5.61,5.12-11.13,10.34-16.79,15.42-4.43,4-8.95,7.85-13.64,11.51a97.67,97.67,0,0,1-20.4,12.59,44.36,44.36,0,0,1-10.08,2.9,32.46,32.46,0,0,1-4.06.19,138.56,138.56,0,0,1,16.53-28,136.65,136.65,0,0,1,23.7-23.7A142.54,142.54,0,0,1,204.39,120.48Zm43.81,9.6a153.46,153.46,0,0,0,1.47,18.16c-.13.13-.26.27-.38.41-1.54,1.74-3,3.57-4.34,5.45a38.74,38.74,0,0,0-5.33,9.73,20.27,20.27,0,0,0-1,4.41,13.62,13.62,0,0,0,.13,4,12,12,0,0,0,1.2,3.5,13,13,0,0,0,2.16,3,17.43,17.43,0,0,0,3,2.47,20.52,20.52,0,0,0,3.21,1.7,33.59,33.59,0,0,0,4.35,1.55,41.15,41.15,0,0,0,4.27.95c.62.11,1.24.19,1.86.28q1.14,3.27,2.37,6.49a141.65,141.65,0,0,1-14.66,12.93c-4.47,3.44-9.08,6.71-13.83,9.75a135.2,135.2,0,0,1-15.31,8.38c1.48-6,3-12,4.4-18.05.79-3.49,1.52-7,2.14-10.51.76-4.35,1.3-8.74,1.64-13.14a100.4,100.4,0,0,0-1.77-28.94c-.09-.44-.2-.87-.31-1.31q3.1-6.24,5.68-12.71,1-2.58,1.93-5.21a55.94,55.94,0,0,1,11.26-2.9A47.56,47.56,0,0,1,248.2,130.08Zm38.92-29.18q.9,0,1.8.15a25,25,0,0,1,5.78,1.54,22.75,22.75,0,0,1,4.31,2.48c-3.1-.55-6.22-1-9.34-1.45l-2.66-.3A21.88,21.88,0,0,0,287.12,100.9ZM331.83,202a22.5,22.5,0,0,0,.8,4.24,22.79,22.79,0,0,0,.88,2.25,16.8,16.8,0,0,0,.83,1.64,13.58,13.58,0,0,0,.87,1.27c.47.61.93,1.22,1.46,1.79a18.75,18.75,0,0,0,3.15,2.61,17.3,17.3,0,0,0,2.76,1.53,29.44,29.44,0,0,0,4.14,1.54,30,30,0,0,0,3.48.75c1.56.25,3.13.43,4.7.54A100.92,100.92,0,0,0,346,233.42a124.86,124.86,0,0,0-5.8,11.78c-7.71-1.33-15.47-2.38-23.28-3a175,175,0,0,0-25.19-.29c-1.06-1.69-2.14-3.37-3.18-5.07q-4.62-7.58-8.83-15.38a159.82,159.82,0,0,0,12.85-10.82,161.52,161.52,0,0,0,16-17.46,154.4,154.4,0,0,0,13.51-19.77c7.39-4,14.69-8.13,22.41-11.45a63.37,63.37,0,0,1,15-4.35,48.74,48.74,0,0,1,8-.28l-1.24.62c-3.75,1.87-7.47,3.78-11.07,5.91a69.81,69.81,0,0,0-10.33,7.39,40.43,40.43,0,0,0-4,4.06,39.54,39.54,0,0,0-3.94,5.43,37.22,37.22,0,0,0-2.71,5.79,38.73,38.73,0,0,0-1.64,5.8,41.57,41.57,0,0,0-.77,5.32A22.69,22.69,0,0,0,331.83,202Zm31.67,18.11c3.22-.22,6.43-.64,9.61-1.15,2.93-.46,5.83-1,8.72-1.7,5.07-1.14,10.07-2.54,15-4.13,1.76-.56,3.5-1.18,5.27-1.72l1.12-.32c.07.15.14.3.2.45a137,137,0,0,1,9.11,33.59c.58,4.54.93,9.1,1.08,13.66a97.83,97.83,0,0,1-14.1-.82,209.27,209.27,0,0,1-21.76-4.46c-6.85-1.71-13.7-3.43-20.6-5q-6.36-1.41-12.79-2.61c.21-.51.4-1,.61-1.53a113,113,0,0,1,5.77-11.68A93.63,93.63,0,0,1,358,221.89c.42-.54.85-1.07,1.29-1.6C360.67,220.27,362.09,220.21,363.5,220.11ZM402,322.45c-.87,2-1.8,4-2.76,6a67.94,67.94,0,0,1-11.08,2.65,51.32,51.32,0,0,1-9.91.26,189.54,189.54,0,0,1-19.15-13l-.71-.56c-.5-.91-1-1.82-1.45-2.75-.19-.38-.38-.77-.58-1.15a64.29,64.29,0,0,1,7.42-2.55,58.58,58.58,0,0,1,7.18-1.47,70.42,70.42,0,0,1,10.67-.48,104.07,104.07,0,0,1,10.59.91c4.51.63,9,1.42,13.48,2.21Q404,317.56,402,322.45ZM276.14,349.54a82.67,82.67,0,0,0,9.42-5.8c1.65-1.18,3.24-2.45,4.79-3.77a64.68,64.68,0,0,1,5.19,5.77c.52.7,1,1.42,1.51,2.14a35.45,35.45,0,0,0-3.72-.34c-1.27,0-2.54,0-3.81.09C285,347.93,280.59,348.84,276.14,349.54ZM211.72,252l.88-.19A194.81,194.81,0,0,0,250.34,239a30,30,0,0,0-1.52,8,18.92,18.92,0,0,0,.15,3.28c.05.44.13.88.21,1.31-2.69,1.13-5.34,2.34-7.94,3.65a132.44,132.44,0,0,0-28.72,20c-.36-1.53-.67-3.07-.9-4.63A79,79,0,0,1,211.72,252Zm-34.48-17.17a167.8,167.8,0,0,1-43.7-.25l.17,0-.21,0-.17,0,.14,0c-2.31-.31-4.61-.66-6.9-1.08q3.69-2.76,7.45-5.42c4-2.86,8.12-5.67,12.26-8.37,9.25-6,18.73-11.7,28-17.7a229.63,229.63,0,0,0,26.48-19.54c2-1.74,3.94-3.55,5.83-5.41q1.07-1,2-2.16c1.39-1.6,2.66-3.31,3.89-5A132.89,132.89,0,0,0,221.06,156c.11-.22.22-.44.34-.66.21,1.17.41,2.35.57,3.53a110.16,110.16,0,0,1-.32,28.22,195.12,195.12,0,0,1-4.57,21.89c-1.4,5.45-2.89,10.88-4.31,16.33A143.83,143.83,0,0,1,177.24,234.85Zm38.72-5.7a142.87,142.87,0,0,0,13.44-6.31A149.8,149.8,0,0,0,243,214.48a159.24,159.24,0,0,0,20.51-16.38c.47,1.15.93,2.31,1.42,3.45,1.36,3.22,2.82,6.4,4.32,9.56-1.91,2.06-3.79,4.16-5.61,6.31a89.81,89.81,0,0,0-9.8,13.77c-2.84,1.39-5.71,2.72-8.62,4a196.11,196.11,0,0,1-32.6,10.27C213.54,240,214.69,234.54,216,229.15Zm34.58-75.22a192.3,192.3,0,0,0,5.5,23.21c.19.65.42,1.3.62,2a33.24,33.24,0,0,1-6.44-1.79,18.08,18.08,0,0,1-3.32-1.88,12.56,12.56,0,0,1-1.64-1.62,10,10,0,0,1-.95-1.61,10.91,10.91,0,0,1-.53-2,14,14,0,0,1,0-2.75,21.23,21.23,0,0,1,1.33-4.62A46.24,46.24,0,0,1,250.54,153.93Zm4.18-5c1.71-1.88,3.47-3.72,5.24-5.54,2.44-2.49,4.88-5,7.29-7.5l.08,0a29.74,29.74,0,0,1,4.58,4.6,33.83,33.83,0,0,1,3.8,6.57A35,35,0,0,1,277.9,155a33.93,33.93,0,0,1,0,7.93,40.47,40.47,0,0,1-2.59,9.23,55.1,55.1,0,0,1-4.14,7.68l-1.4.06c-2.62.07-5.25,0-7.87-.17A194.69,194.69,0,0,1,254.72,148.91Zm11.69,37.42c-.53.64-1.07,1.28-1.62,1.91-.25-.67-.49-1.35-.73-2C264.84,186.26,265.62,186.3,266.41,186.33Zm7.61,0c1.27-.06,2.54-.13,3.81-.22,3.83-.29,7.64-.77,11.42-1.38,2.51-.4,5-.9,7.48-1.46-2.11,2.35-4.32,4.62-6.55,6.85-4.39,4.39-8.87,8.69-13.26,13.09-1.41,1.41-2.8,2.84-4.19,4.28-1.2-2.6-2.38-5.21-3.5-7.84-.71-1.71-1.41-3.42-2.09-5.15A90.9,90.9,0,0,0,274,186.3Zm40.61-9,.57-.29c-2.15,3.23-4.44,6.37-6.8,9.45A168.65,168.65,0,0,1,295,201.79a156.78,156.78,0,0,1-14.86,13.12c-.9.69-1.82,1.36-2.73,2q-1.49-2.9-2.91-5.82c5.33-5.76,10.93-11.28,16.42-16.87,3.67-3.74,7.34-7.52,10.63-11.61.18-.23.35-.46.53-.68A68.49,68.49,0,0,0,314.63,177.31Zm-38.62,47q5,9.16,10.58,18c-2.81.27-5.6.6-8.39,1a125.24,125.24,0,0,0-24.27,6.33c0-.16-.08-.32-.11-.48a23,23,0,0,1,0-5A32.53,32.53,0,0,1,256,236.8c.1-.24.21-.47.32-.7a156.21,156.21,0,0,0,19.64-11.9Zm132,80.53c-5.84-.85-11.67-1.74-17.54-2.31a100.23,100.23,0,0,0-11.09-.47,73,73,0,0,0-11.62,1.18,62.66,62.66,0,0,0-14.52,4.62c-.48-.9-1-1.8-1.48-2.68a52.33,52.33,0,0,0-7.57-10.34,39.94,39.94,0,0,0-4.85-4.15,34.08,34.08,0,0,0-5.24-3.19l-1.36-.65.12-.56c1.56-7.07,3.18-14.12,5.09-21.1,1.34-4.92,2.86-9.8,4.61-14.59,5.88,1.33,11.73,2.83,17.54,4.45,3.36.94,6.71,1.93,10.05,2.94,3.59,1.09,7.16,2.21,10.76,3.25a152.84,152.84,0,0,0,21.95,4.88,97.34,97.34,0,0,0,10.78.91A145.8,145.8,0,0,1,408,304.86Zm-70.91-51.92a298.74,298.74,0,0,0-9.45,32,43.92,43.92,0,0,0-4.82-1.16q-6.39-7.32-12.32-15-8.92-11.6-16.87-23.89a179.47,179.47,0,0,1,26.91,1.62c6,.82,11.91,1.89,17.8,3.14C337.94,250.77,337.52,251.85,337.11,252.94Zm-38.88,6.63q8.73,12.17,18.52,23.52a57.39,57.39,0,0,0-6.94,0c-2.17.14-4.33.43-6.48.76s-4.24.79-6.33,1.32c-1.8.46-3.55,1-5.3,1.61q-1.79-1.85-3.69-3.57c-4.83-4.42-10.11-8.34-15.29-12.34l-.28-.22c-2.71-2.1-5.4-4.22-8-6.45-1.38-1.18-2.73-2.4-4-3.65a36.57,36.57,0,0,1-3.19-3.4,21.12,21.12,0,0,1-2.29-3.89c-.2-.5-.35-1-.5-1.5,2.83-1,5.7-1.9,8.6-2.68A123.34,123.34,0,0,1,278.36,246q5-.64,10-.91Q293.14,252.47,298.23,259.57Zm-3.76,42.65a22.94,22.94,0,0,1,1.68,12.39,36.65,36.65,0,0,1-2.28,8.06c-.73,1.65-1.55,3.25-2.43,4.82-.35.62-.73,1.22-1.12,1.8-8.1-6.35-17.24-11.21-26.6-15.51,3.19-2.61,6.4-5.21,9.65-7.74,1.28-1,2.57-2,3.89-2.88s2.59-1.72,3.93-2.52a75.16,75.16,0,0,1,8.53-4.35l1.07-.42A36.83,36.83,0,0,1,294.47,302.22Zm-23.38-87.38c.8,1.61,1.61,3.22,2.44,4.81q-4.93,3.4-10.12,6.44l-2.11,1.18c1.15-1.71,2.36-3.37,3.61-5C266.89,219.72,269,217.25,271.09,214.84Zm-50.34,55.43a124.66,124.66,0,0,1,27.23-16c.55-.23,1.1-.44,1.65-.66.05.18.09.36.14.54a21.86,21.86,0,0,0,3.58,6.78,55.54,55.54,0,0,0,6.23,6.6c2.3,2.14,4.7,4.15,7.13,6.14,5,4.07,10.06,8,14.84,12.3q1.83,1.67,3.58,3.42l-.38.15a73.83,73.83,0,0,0-10.54,5.69c-1.86,1.21-3.62,2.55-5.38,3.89q-3.4,2.6-6.74,5.27c-2.33,1.85-4.64,3.74-6.94,5.63-3.38-1.46-6.78-2.88-10.18-4.31l-2.25-.94-1.32-.56-.59-.25c-1.84-.77-3.67-1.54-5.48-2.36a51.73,51.73,0,0,1-9.6-5.66,41.48,41.48,0,0,1-6.75-6.69,38.71,38.71,0,0,1-4.43-7.59,44,44,0,0,1-1.62-4.82Q216.73,273.41,220.75,270.27Zm21.74,60.67c.84-.64,1.67-1.3,2.51-1.95a15.71,15.71,0,0,1,1.79.61,14.65,14.65,0,0,1,2.32,1.3,8.85,8.85,0,0,1,.76.74c.15.24.29.48.42.73a9.66,9.66,0,0,1,.33,1.31c.14,1.44.1,2.9.15,4.36a20.81,20.81,0,0,0,1.16,6.45,27.08,27.08,0,0,0,1.73,3.75q.34.61.75,1.2c-.93.19-1.87.36-2.82.5a32.35,32.35,0,0,1-7.36.11,19.46,19.46,0,0,1-3.88-1,16,16,0,0,1-2.3-1.33,16.65,16.65,0,0,1-1.68-1.68,16.29,16.29,0,0,1-1.4-2.43,22.45,22.45,0,0,1-1.15-4.42c-.07-.62-.12-1.24-.14-1.86Q238.18,334.25,242.49,330.94Zm8.62-6.81c2.18-1.76,4.35-3.55,6.51-5.33a187.16,187.16,0,0,1,17.55,9.42c2.9,1.79,5.72,3.71,8.43,5.78.38.3.74.61,1.11.92-.3.24-.59.49-.9.73a82.87,82.87,0,0,1-17.3,10q-2.52,1-5.13,1.92a14.58,14.58,0,0,1-1.06-1.15,19.51,19.51,0,0,1-1.82-3.21c-.21-.53-.4-1.06-.56-1.61a12,12,0,0,1-.37-1.68c-.13-1.29-.14-2.58-.15-3.88a23.74,23.74,0,0,0-.41-4.61,9.62,9.62,0,0,0-.79-2.22,10.58,10.58,0,0,0-1.31-2A12.69,12.69,0,0,0,251.11,324.13ZM304.53,344c-1.07-1.5-2.2-3-3.38-4.39a61.5,61.5,0,0,0-5.2-5.51,1.56,1.56,0,0,0,.16-.2,17.79,17.79,0,0,0,1.46-2.26,52.64,52.64,0,0,0,2.94-6.1,42.46,42.46,0,0,0,1.69-4.91,37.79,37.79,0,0,0,1-5.58,29.75,29.75,0,0,0-.49-9.41,26.55,26.55,0,0,0-1.12-3.89,37.66,37.66,0,0,0-2-4.5,35.29,35.29,0,0,0-2.26-3.66,71,71,0,0,1,9.25-2,54.83,54.83,0,0,1,12.93-.11,41.58,41.58,0,0,1,6,1.35l.15.16c-1.46,5.83-2.92,11.66-4.75,17.4-1.7,5.37-3.67,10.66-5.85,15.85q-3.13,7.38-6.87,14.5C307,341.82,305.75,342.93,304.53,344Zm23.84-37.61c.71-2.85,1.34-5.72,2-8.59q7.27,7.35,15.13,14.11l-1.45.86c-3.55,2.21-7,4.6-10.38,7.05s-6.78,5.08-10.08,7.73c-.93.74-1.85,1.5-2.77,2.26A192.52,192.52,0,0,0,328.37,306.42Zm-6-141.61-3.71,2.05c-2.55,1.41-5.11,2.81-7.7,4.15-.89.46-1.79.88-2.71,1.28l-.76.29.24-.57a75.88,75.88,0,0,0,4.07-14.26,99,99,0,0,0,1.74-16.65,75.78,75.78,0,0,0-1.39-16.53,43,43,0,0,0-5-13.56,176.88,176.88,0,0,1,27.54,8.13,91.58,91.58,0,0,1-.76,9.94,112.18,112.18,0,0,1-7.67,27.48Q324.43,160.76,322.36,164.81Zm-28.8-56.17c3.51.49,7,1.08,10.5,1.75a32.71,32.71,0,0,1,3.07,5.6,51,51,0,0,1,3.24,12.46,86.06,86.06,0,0,1-.23,22.16A83.19,83.19,0,0,1,304.85,171c-.44,1-.93,2-1.44,3-2.31.77-4.66,1.45-7,2.05a130.47,130.47,0,0,1-14.54,2.82c-1.09.14-2.17.27-3.26.38l.1-.17a54.47,54.47,0,0,0,3.09-6.67,38.64,38.64,0,0,0,2.63-13.56,36.09,36.09,0,0,0-.73-7.33,36.5,36.5,0,0,0-2.35-7.34,33.84,33.84,0,0,0-7.63-11.19c-.67-.65-1.39-1.26-2.12-1.85a95,95,0,0,0,9.27-11.88,41.35,41.35,0,0,0,5.34-11.49C288.65,108.06,291.11,108.32,293.56,108.64Zm-11.36,1.49a53.11,53.11,0,0,1-6.75,11.1c-2.15,2.75-4.45,5.34-6.83,7.87l-.11-.08A35.56,35.56,0,0,0,257,124.53c-1.22-.25-2.45-.43-3.69-.57.11-3.88.38-7.76.87-11.61.22-1.58.5-3.16.82-4.73a179.83,179.83,0,0,1,28.14-.05C282.84,108.44,282.54,109.29,282.2,110.13Zm-28.77,20.24a35.37,35.37,0,0,1,8,2.15c.88.39,1.73.82,2.56,1.28-3.3,3.29-6.67,6.52-10,9.81q-.7-6.6-.83-13.26Zm-27.49,7.73c-1.18,2.78-2.46,5.51-3.8,8.22a73.4,73.4,0,0,0-2.54-6.92c.89-.64,1.78-1.27,2.71-1.84a48.29,48.29,0,0,1,4.91-2.64C226.8,136,226.38,137.05,225.94,138.1Zm-92.25,58.54a26.2,26.2,0,0,0,2.66.17,34.88,34.88,0,0,0,5.4-.41,36.48,36.48,0,0,0,4.54-.91,55.14,55.14,0,0,0,10-3.89,82.12,82.12,0,0,0,9.29-5.42c3.39-2.25,6.64-4.7,9.82-7.23s6.12-5,9.09-7.65c5.86-5.18,11.5-10.6,17.16-16,2.93-2.78,5.86-5.57,8.85-8.29,2.25-2,4.56-4,6.94-5.95a74.46,74.46,0,0,1,2.83,8.92c-1,1.84-2,3.66-3,5.45A124.47,124.47,0,0,1,208.36,169a48.91,48.91,0,0,1-3.76,4.37c-1.68,1.7-3.49,3.29-5.28,4.86-2.29,2-4.64,3.91-7,5.77-17.41,13.37-37,23.45-55.29,35.49-3.49,2.3-6.93,4.67-10.35,7.06l-.44.32A150.62,150.62,0,0,1,133.69,196.64Zm57.08,148.09a34.33,34.33,0,0,0,1.52-5.19,39.11,39.11,0,0,0,.69-5.07,133.53,133.53,0,0,1,10.15,8.86l.3.3a119.46,119.46,0,0,1-13.87,4C190,346.69,190.39,345.71,190.77,344.73Zm27.66,1.54c2.83-1.38,5.58-2.91,8.28-4.52a24,24,0,0,0,.54,2.52,21.47,21.47,0,0,0,1.58,4,18.62,18.62,0,0,0,2.11,3.1,12.83,12.83,0,0,0,2.23,2.19,19.06,19.06,0,0,0,3,2,21.38,21.38,0,0,0,3.67,1.45,19.65,19.65,0,0,0,3,.63,36.31,36.31,0,0,0,4.29.35,43.1,43.1,0,0,0,8.09-.81,53.77,53.77,0,0,0,6.62-1.64c.48.19,1,.36,1.46.51a20.11,20.11,0,0,0,3.26.6,29.38,29.38,0,0,0,5.93,0c2.31-.19,4.62-.55,6.91-.91,2-.33,4.08-.67,6.13-1,1.73-.22,3.47-.38,5.22-.46.8,0,1.6,0,2.39,0-7.57,6.84-15.25,13.58-23.32,19.84-4.43,3.4-9,6.64-13.65,9.67a67.64,67.64,0,0,1-12.61-7.65,160,160,0,0,1-17-16.11c-3.86-4.08-7.7-8.18-11.64-12.18C216.11,347.38,217.27,346.83,218.43,346.27Zm52.08,41.66a58.05,58.05,0,0,1-9.6-2.28l.69-.43c12-7.65,23-16.72,33.83-25.93l3.81-3.26c-2.41,3.69-4.94,7.31-7.62,10.82A141.65,141.65,0,0,1,271.48,388Zm14.28-.44a149,149,0,0,0,12.48-14.75q3.68-4.9,7-10.09a67.46,67.46,0,0,1,2.17,9.76c.44,3.59.62,7.2.84,10.81a105.47,105.47,0,0,1-18.54,4.56c-1.54.19-3.1.34-4.65.45Zm31.38-7.55c-.16-2.05-.34-4.09-.59-6.13a78,78,0,0,0-1.68-9.13c.79.9,1.56,1.82,2.3,2.77,2.43,3.18,4.75,6.45,7.32,9.53C321.07,378,318.63,379,316.17,379.94Zm95-56.5q1.86-4.63,3.43-9.36c3.19.5,6.39,1,9.59,1.32A103.56,103.56,0,0,1,411.2,323.44Zm42.62-53.91a70.12,70.12,0,0,1-4.41,16.35c-.91,2.06-1.92,4.08-3,6a60.43,60.43,0,0,1-4.25,6.38,88.22,88.22,0,0,1-8,8.81c-1.75.05-3.49.06-5.24,0-2.38-.07-4.76-.28-7.14-.51-1.55-.15-3.11-.32-4.66-.51.05-.19.11-.38.16-.56a164.83,164.83,0,0,0,4.69-25.61q.69-6.6.77-13.24c1.06-.12,2.11-.26,3.17-.4A65,65,0,0,0,448,258.84c2.11-1.14,4.21-2.32,6.28-3.53A76,76,0,0,1,453.82,269.53Zm-33.77-59.9a38.73,38.73,0,0,1,8.45,2.3,39.29,39.29,0,0,1,7.49,4.39,44.58,44.58,0,0,1,7,7.07,55.65,55.65,0,0,1,6.46,11.19,67.7,67.7,0,0,1,3.28,10.48c-1.59,1-3.22,2-4.86,3l-4.21,2.47a63.47,63.47,0,0,1-7.12,3.62,64.6,64.6,0,0,1-14,3.93c-.06-1.29-.13-2.59-.22-3.88a144.32,144.32,0,0,0-4.17-25.46,137.34,137.34,0,0,0-6.59-19.21A44.11,44.11,0,0,1,420.05,209.63Zm-20.62-6.56c-1.17.37-2.32.76-3.48,1.15q-4,1.35-8,2.52a146.6,146.6,0,0,1-20,4.41c1.88-1.68,3.82-3.31,5.82-4.86A135.87,135.87,0,0,1,394,193.44C395.92,196.57,397.74,199.79,399.43,203.07ZM386.77,183c2,2.64,3.92,5.37,5.74,8.15q-4.56,2.31-8.95,4.93a137.81,137.81,0,0,0-13.51,9.19c-1.82,1.41-3.6,2.87-5.32,4.4-.73.65-1.43,1.34-2.13,2a54.51,54.51,0,0,1-10.22-.15,28.41,28.41,0,0,1-5.95-1.52,17.67,17.67,0,0,1-2.87-1.63,14.2,14.2,0,0,1-1.69-1.69,14.7,14.7,0,0,1-1.18-2,17.45,17.45,0,0,1-.8-3,26.71,26.71,0,0,1,.08-5.51,39,39,0,0,1,2.26-8.49,33.14,33.14,0,0,1,3.6-6.14,44.48,44.48,0,0,1,7-6.88,115.86,115.86,0,0,1,17.25-10.2,3.34,3.34,0,0,0,.87,1.4c2.92,2.77,5.77,5.6,8.5,8.56C382,177.17,384.46,180.05,386.77,183ZM348.5,125.55a75.12,75.12,0,0,1,8.91,5.85,68.13,68.13,0,0,1,11.51,11.51c1.59,2.09,3.1,4.24,4.71,6.31l.34.42c-1-.13-1.92-.25-2.89-.33a48.38,48.38,0,0,0-8.51,0,58.77,58.77,0,0,0-14.71,3.14,111,111,0,0,0-14.37,6.37c-1.86,1-3.7,1.95-5.53,2.95a126.81,126.81,0,0,0,5.26-14.38,102.91,102.91,0,0,0,4.36-26.47v-.57l.88.35A106.91,106.91,0,0,1,348.5,125.55ZM319.62,77a15.34,15.34,0,0,0-1.59-.39l-.26,0a1.11,1.11,0,0,0-1.12.8,1.12,1.12,0,0,0,.78,1.37,12.44,12.44,0,0,1,2.4.69l.3.16a13.84,13.84,0,0,1,0,2.23,17,17,0,0,1-1,3.36,24.42,24.42,0,0,1-2.65,4.49,21.88,21.88,0,0,1-3.13,3.18,15.44,15.44,0,0,1-2.44,1.46,10.45,10.45,0,0,1-1.74.49,8.57,8.57,0,0,1-1.34,0,9.57,9.57,0,0,1-1.27-.35,9.28,9.28,0,0,1-1.39-.83,16.14,16.14,0,0,1-2-2,10.43,10.43,0,0,1-1-1.6,7.41,7.41,0,0,1-.34-1.2,9.2,9.2,0,0,1,0-1.05,7.84,7.84,0,0,1,.35-1.26,11.26,11.26,0,0,1,1.06-1.76,20.19,20.19,0,0,1,2.93-2.84,42.83,42.83,0,0,1,8.54-4.78c1.44-.59,2.89-1.13,4.37-1.61C319.32,76,319.47,76.47,319.62,77ZM277.36,66.1a35.31,35.31,0,0,1,6.93-4.1,30.7,30.7,0,0,1,6.84-1.88,26.22,26.22,0,0,1,6.07-.06,31.69,31.69,0,0,1,7.13,2,37.55,37.55,0,0,1,7.43,4.33,30.54,30.54,0,0,1,4.54,4.41l-.87.3a60,60,0,0,0-7.27,3.16,36.81,36.81,0,0,0-6.31,4.16,18.71,18.71,0,0,0-2.22,2.14,15.26,15.26,0,0,0-2,2.84,11,11,0,0,0-1.07,2.88,13.12,13.12,0,0,0-.22,1.78,11.38,11.38,0,0,0,.18,2,10.22,10.22,0,0,0,1.08,3.07,10.36,10.36,0,0,0,.84,1.34A19.32,19.32,0,0,0,300,96.42a14.3,14.3,0,0,0,3.51,2.79,12.14,12.14,0,0,0,2.15.88,6.77,6.77,0,0,0,.89.21,13.24,13.24,0,0,0,1.65.19,10.57,10.57,0,0,0,2.25-.17,10.9,10.9,0,0,0,1.77-.44,15.35,15.35,0,0,0,4.08-2.11,24.79,24.79,0,0,0,6.39-7,26.57,26.57,0,0,0,2-4,15.45,15.45,0,0,0,.86-2.73l.14.16a35,35,0,0,1,4.11,7.3,66.88,66.88,0,0,1,4.25,16.22,71,71,0,0,1,.57,7.27l-3.38-1.28c-4.43-1.63-8.93-3.07-13.47-4.37q-7.25-2.06-14.65-3.52a23.59,23.59,0,0,0-5.53-4.19A24.85,24.85,0,0,0,287,98.86a22.19,22.19,0,0,0-1.21-5.5c-1.59-4.36-4.8-8-8.29-11a44.71,44.71,0,0,0-9.63-6.14c.49-.7,1-1.39,1.49-2.06A48.6,48.6,0,0,1,277.36,66.1Zm-17,24a79.24,79.24,0,0,1,6.37-12,45.35,45.35,0,0,1,7.52,4.63,35.38,35.38,0,0,1,6,5.91A23.37,23.37,0,0,1,282.9,93a20.62,20.62,0,0,1,1.25,4.68c.05.39.08.78.11,1.16-.32,0-.64,0-.95,0a1,1,0,1,0,0,2l1,0c0,.72-.06,1.43-.13,2.14a182.62,182.62,0,0,0-18.55-1c-3.14,0-6.28.1-9.42.26A96.14,96.14,0,0,1,260.34,90.06Zm-10.7,18.07a107.63,107.63,0,0,0-1.42,15.53,54.41,54.41,0,0,0-10.88,1.17c-1.34.27-2.65.61-4,1,.46-1.78.88-3.57,1.23-5.38a55.37,55.37,0,0,0,1.1-10.11c3.55-.73,7.13-1.33,10.73-1.83C247.51,108.35,248.58,108.25,249.64,108.13Zm-41.78,10.8a154.07,154.07,0,0,1,17.72-6.16c2.47-.69,5-1.29,7.47-1.85-.06,1.41-.17,2.83-.35,4.24a76.1,76.1,0,0,1-2.65,11.72c-1.79.62-3.56,1.31-5.29,2.08a48,48,0,0,0-8,4.48,67.2,67.2,0,0,0-5.51-8.54c-1.43-1.89-3-3.69-4.58-5.44Zm-83.8,64.83a36.4,36.4,0,0,1-5.47-5.49,30,30,0,0,1-3.23-5.5,29.44,29.44,0,0,1-1.68-6.18,32.25,32.25,0,0,1,0-7.15,37.8,37.8,0,0,1,2.31-8.29,43.29,43.29,0,0,1,4.89-8.34,43.78,43.78,0,0,1,6.89-6.92,43.21,43.21,0,0,1,8.51-4.92c6-2.42,12.31-3.66,18.41-5.66a48.92,48.92,0,0,0,9.71-4.28,38.88,38.88,0,0,0,4.7-3.35,32,32,0,0,0,4.31-4.24l.54-.7a3.45,3.45,0,0,0,.47-1.75,3.91,3.91,0,0,0,0-.48,20.34,20.34,0,0,1,3.45-2,17.54,17.54,0,0,1,3.41-.92,17.25,17.25,0,0,1,3.8,0,21.57,21.57,0,0,1,4.72,1.35,35.13,35.13,0,0,1,6.89,4.19c1,.78,1.93,1.6,2.86,2.44-4.41,2-8.74,4.14-12.94,6.54a140.62,140.62,0,0,0-18,12.31,131.69,131.69,0,0,0-15.12,14.18,139.31,139.31,0,0,0-12.9,16.54,137.42,137.42,0,0,0-10,17.66c-.59,1.26-1.15,2.53-1.71,3.8A27.84,27.84,0,0,1,124.06,183.76Zm-23.91,82.11a27.81,27.81,0,0,1,1.61-5.65,43.19,43.19,0,0,1,5-8.37,82.12,82.12,0,0,1,9.55-10c0,.62-.07,1.23-.09,1.85a161.62,161.62,0,0,0,.72,20.76c-1.5.7-3,1.42-4.48,2.18-4,2-7.85,4.33-11.69,6.64a16.94,16.94,0,0,1-.69-2.72A22.19,22.19,0,0,1,100.15,265.87ZM113.07,284a36.81,36.81,0,0,1-7.22-4.05c-.29-.24-.57-.5-.85-.76,2.24-1.36,4.5-2.71,6.78-4,2-1.15,4-2.23,6.12-3.26.7,4.93,1.6,9.83,2.72,14.67A76.4,76.4,0,0,1,113.07,284Zm19.46,12.76,4,.9c5.14,1.13,10.28,2.24,15.38,3.55A106.82,106.82,0,0,1,166,305.7a45.83,45.83,0,0,1,9,5.07,27.94,27.94,0,0,1,4,4,32.72,32.72,0,0,1,3.44,6.14c.29.72.55,1.45.79,2.19a131.15,131.15,0,0,0-24.64-10.81,112,112,0,0,0-22.36-4.76Q134.23,302.18,132.53,296.75Zm13.26,30.54A137.57,137.57,0,0,1,138,311.65l-.51-1.29a115.69,115.69,0,0,1,27.47,7.74,129.08,129.08,0,0,1,19.67,10.46,31.73,31.73,0,0,1,0,6.75,34.72,34.72,0,0,1-2.07,7.41,43.87,43.87,0,0,1-3.88,6.88,85.47,85.47,0,0,1-16,.47c-2.52-2.77-5-5.62-7.27-8.58A138.69,138.69,0,0,1,145.79,327.29Zm24.94,31a.34.34,0,0,1-.09-.08h.19A.81.81,0,0,1,170.73,358.29Zm-19.6,12.27a72.77,72.77,0,0,1-17,4.8,49.6,49.6,0,0,1-11.68.08A56.17,56.17,0,0,1,109.68,372a38.63,38.63,0,0,1-7.38-4.18,25.27,25.27,0,0,1-3.46-3.4,18.6,18.6,0,0,1-1.73-2.91,13.26,13.26,0,0,1-.89-6.68A16.25,16.25,0,0,1,97,352a16.87,16.87,0,0,1,1.51-2.56,21,21,0,0,1,2.69-2.65,26,26,0,0,1,4.46-2.56,31.62,31.62,0,0,1,6.62-1.79,30.25,30.25,0,0,1,6.59,0,34.34,34.34,0,0,1,3.59.79,33.3,33.3,0,0,1,3.75,1.31c4.29,1.9,8.3,4.35,12.43,6.58,2.19,1.18,4.44,2.22,6.74,3.18a45.85,45.85,0,0,0,8,2.43c1.34.3,2.7.53,4.06.73,1.47,1.58,3,3.15,4.51,4.67.57.56,1.15,1.09,1.73,1.64A81.29,81.29,0,0,1,151.13,370.56Zm26.19-6.45a61.47,61.47,0,0,0,4.49-4.64q1.06-1.23,2.07-2.52c1.45-.23,2.88-.47,4.32-.74a118.16,118.16,0,0,0,15.84-4c1.92-.64,3.81-1.34,5.69-2.09.85.92,1.7,1.84,2.54,2.77,5.6,6.19,10.92,12.63,16.62,18.73a96.64,96.64,0,0,0,18,15.55c.66.42,1.33.81,2,1.2-1.76,1-3.53,2-5.32,3-2.1,1.11-4.24,2.13-6.4,3.1a47.62,47.62,0,0,0-6.3-8.5,37.12,37.12,0,0,0-5.69-4.85,38.59,38.59,0,0,0-5.8-3.37,41.41,41.41,0,0,0-6.91-2.61,29,29,0,0,0-3-.65,35.73,35.73,0,0,0-4-.45,21,21,0,0,0-2.86.08,22.38,22.38,0,0,0-3.73.64,19.3,19.3,0,0,0-3.22,1.24c-.34.16-.67.35-1,.54-4.6-2.84-9.08-5.89-13.38-9.18C179.93,366.27,178.62,365.2,177.32,364.11Zm48.17,27.12q-4.55-1.61-9-3.44-6.43-2.76-12.61-6a22.77,22.77,0,0,1,3.69.13,33.38,33.38,0,0,1,7.26,2.05,38.62,38.62,0,0,1,7.46,4.34A33.3,33.3,0,0,1,225.49,391.23ZM199.1,404.92a17.51,17.51,0,0,1-2.2-2.19,15.4,15.4,0,0,1-1.47-2.51,18.34,18.34,0,0,1-1-3.56,27.05,27.05,0,0,1,0-5.76,20.23,20.23,0,0,1,.92-3.6l.74.43A174.79,174.79,0,0,0,216,397.16c2.51,1,5.06,2,7.62,2.86-3.65,1.38-7.32,2.69-11,3.88-3.33,1.08-6.71,2.08-10.11,3A22.43,22.43,0,0,1,199.1,404.92Zm27.43,4a65.27,65.27,0,0,1-15.74.18,40.23,40.23,0,0,1-4.21-.85,216.18,216.18,0,0,0,21.52-6.73q2.53.79,5.08,1.53c.66,1.38,1.29,2.77,1.91,4.17A85.79,85.79,0,0,1,226.53,408.94Zm60.24,1.74c-2,3.2-4,6.38-6.25,9.38a43.54,43.54,0,0,1-6.76,7,23.81,23.81,0,0,1-4.28,2.57,17,17,0,0,1-3.12.87,15,15,0,0,1-2.68,0,16.21,16.21,0,0,1-2.88-.8,22.92,22.92,0,0,1-3.95-2.36,37.4,37.4,0,0,1-5.52-5.59,56,56,0,0,1-5-8.28c3-1.14,6-2.45,8.89-3.88.93-.46,1.83-1,2.74-1.44a174.11,174.11,0,0,0,20.92,1.48c3.08,0,6.15-.07,9.23-.24A3.71,3.71,0,0,0,286.77,410.68Zm13.17-11.35a159.59,159.59,0,0,1-29.8,1l.34-.24c1.63-1.23,3.22-2.51,4.78-3.81l.48,0c2.11.13,4.23.14,6.35.08A87.56,87.56,0,0,0,295,395a103.29,103.29,0,0,0,12.86-3.21q.27,3,.6,6.09C305.64,398.44,302.8,398.93,299.94,399.33Zm17.68-3.57q-.39-3.54-.72-7.09l1.8-.68c3.79-1.44,7.57-3,11.35-4.52a38.08,38.08,0,0,0,5.09,3.47,17.33,17.33,0,0,0,2.61,1.14c.33.12.66.21,1,.31l-2.5,1.1A144,144,0,0,1,317.62,395.76Z"></path><path d="M409.84,130a3.75,3.75,0,1,0,3.75-3.75A3.78,3.78,0,0,0,409.84,130Z"></path><path d="M475.77,291a2.46,2.46,0,1,0-2.46-2.46A2.48,2.48,0,0,0,475.77,291Z"></path><circle cx="129.54" cy="399.73" r="1.86"></circle><path d="M147.41,398.12a1.36,1.36,0,1,0,1.36,1.35A1.37,1.37,0,0,0,147.41,398.12Z"></path><circle cx="64.08" cy="219.04" r="3.75"></circle><path d="M74.07,211a1.63,1.63,0,1,0-1.62-1.62A1.64,1.64,0,0,0,74.07,211Z"></path><circle cx="77.57" cy="227.25" r="2.03"></circle><path d="M215.17,80.44a3,3,0,1,0-3-3A3.06,3.06,0,0,0,215.17,80.44Z"></path><path d="M226.91,86.47a2.1,2.1,0,1,0-2.09-2.09A2.12,2.12,0,0,0,226.91,86.47Z"></path><path d="M389.75,396.74a3.58,3.58,0,1,0,3.58,3.58A3.61,3.61,0,0,0,389.75,396.74Z"></path><path d="M386.17,410.52a2.17,2.17,0,1,0,2.17,2.17A2.19,2.19,0,0,0,386.17,410.52Z"></path><path d="M402.73,404.46a2.75,2.75,0,1,0,2.75,2.75A2.77,2.77,0,0,0,402.73,404.46Z"></path><path d="M230.61,423.5a3,3,0,1,0,3,3A3.08,3.08,0,0,0,230.61,423.5Z"></path><path d="M224.1,436.29a2.75,2.75,0,1,0,2.74,2.75A2.77,2.77,0,0,0,224.1,436.29Z"></path><path d="M237.26,434.42a1.09,1.09,0,1,0,1.09,1.09A1.1,1.1,0,0,0,237.26,434.42Z"></path><path d="M305.37,224.27a5,5,0,0,1,2.65,2.34A4.88,4.88,0,0,0,305.37,224.27Z"></path></g></svg>